<?xml version="1.0" ?>
<svg xmlns="http://www.w3.org/2000/svg" viewBox="0 -10 270 380">
	<g name="logo">
		<g style="clip-path:url(#SVGID_00000134227339461458493900000007223171829834478471_);" transform="scale(6.107) translate(-380.11 -18.62)">
			<defs>
				<filter id="Adobe_OpacityMaskFilter" filterUnits="userSpaceOnUse" x="380.11" y="17.59" width="43.02" height="61.46">
					<feColorMatrix type="matrix" values="1 0 0 0 0 0 1 0 0 0 0 0 1 0 0 0 0 0 1 0"/>
				</filter>
			</defs>
			<mask maskUnits="userSpaceOnUse" x="380.11" y="17.59" width="43.02" height="61.46" id="mask0_00000045600482063877763850000018203340017490944154_">
				<path fill="#FFFFFF" d="M 423.14,37.29 C 423.14,34.69 421.51,32.38 419.06,31.5 L 383.4,18.77 C 381.8,18.2 380.11,19.39 380.11,21.09 L 380.11,40.45 C 380.11,41.49 380.76,42.42 381.74,42.77 L 397.72,48.48 C 399.32,49.05 401.01,47.86 401.01,46.16 L 401.01,35.03 C 401.01,34.17 401.87,33.58 402.67,33.88 L 406.86,35.46 C 409.26,36.36 410.84,38.65 410.84,41.21 L 410.84,46.05 L 392.79,52.65 C 391.82,53.0 391.18,53.93 391.18,54.96 L 391.18,74.31 C 391.18,76.02 392.88,77.21 394.48,76.62 L 419.1,67.62 C 421.52,66.73 423.14,64.43 423.14,61.85 L 423.14,37.29"/>
			</mask>
			<g mask="url(#mask0_00000045600482063877763850000018203340017490944154_)">
				<linearGradient id="SVGID_00000178883601381428405910000004453646959259357576_" gradientUnits="userSpaceOnUse" x1="394.265" y1="1016.1134" x2="405.7044" y2="986.1689" gradientTransform="matrix(1 0 0 -1 0 1034.4158)">
					<stop offset="0" style="stop-color:#0B53CE"/>
					<stop offset="1" style="stop-color:#7252AA"/>
				</linearGradient>
				<path style="fill:url(#SVGID_00000178883601381428405910000004453646959259357576_);" d="M 380.11,17.59 L 423.13,32.95 L 423.13,54.05 C 423.13,55.75 421.45,56.94 419.85,56.37 L 410.84,53.15 L 410.84,41.21 C 410.84,38.65 409.25,36.36 406.86,35.46 L 402.67,33.89 C 401.87,33.59 401.01,34.18 401.01,35.04 L 401.01,49.65 L 380.11,42.19 L 380.11,17.59"/>
				<path opacity="0.32" d="M 423.13,37.51 L 423.13,37.51 C 423.13,40.09 421.52,42.4 419.09,43.29 L 391.17,53.49 L 391.17,78.07 L 423.13,66.39 L 423.13,37.51 L 423.13,37.51"/>
				<path opacity="0.24" d="M 423.13,38.49 L 423.13,38.49 C 423.13,41.07 421.52,43.38 419.09,44.27 L 391.17,54.47 L 391.17,79.05 L 423.13,67.37 L 423.13,38.49 L 423.13,38.49"/>
				<linearGradient id="SVGID_00000179628340029762393520000007800217176999640496_" gradientUnits="userSpaceOnUse" x1="407.1558" y1="958.7491" x2="407.1558" y2="994.4423" gradientTransform="matrix(1 0 0 -1 0 1034.4158)">
					<stop offset="0" style="stop-color:#2266E3"/>
					<stop offset="1" style="stop-color:#AE7FE2"/>
				</linearGradient>
				<path style="fill:url(#SVGID_00000179628340029762393520000007800217176999640496_);" d="M 423.13,37.26 L 423.13,37.26 C 423.13,39.84 421.52,42.15 419.09,43.04 L 391.17,53.24 L 391.17,77.82 L 423.13,66.14 L 423.13,37.26 L 423.13,37.26"/>
				<linearGradient id="SVGID_00000127737009981319319640000004625573773135000728_" gradientUnits="userSpaceOnUse" x1="423.1349" y1="976.8746" x2="410.8902" y2="976.8746" gradientTransform="matrix(1 0 0 -1 0 1034.4158)">
					<stop offset="0" style="stop-color:#94B9FF"/>
					<stop offset="0.2878" style="stop-color:#94B9FF;stop-opacity:0.5236"/>
					<stop offset="1" style="stop-color:#538FFF;stop-opacity:0"/>
				</linearGradient>
				<path style="opacity:0.5;fill:url(#SVGID_00000127737009981319319640000004625573773135000728_);" d="M 423.13,37.26 L 423.13,37.26 C 423.13,39.84 421.52,42.15 419.09,43.04 L 391.17,53.24 L 391.17,77.82 L 423.13,66.14 L 423.13,37.26 L 423.13,37.26"/>
				<path opacity="0.5" fill="#B0ADFF" d="M 410.84,46.06 L 401.0,49.66 L 401.0,64.08 C 401.0,64.94 401.86,65.53 402.66,65.23 L 406.86,63.65 C 409.26,62.75 410.84,60.46 410.84,57.9 L 410.84,46.06 L 410.84,46.06"/>
			</g>
		</g>
	</g>
</svg>
